<svg xmlns="http://www.w3.org/2000/svg" version="1.1" xmlns:xlink="http://www.w3.org/1999/xlink" width="512" height="512" x="0" y="0" viewBox="0 0 512 512" style="enable-background:new 0 0 512 512" xml:space="preserve" class=""><g><clipPath id="a"><path d="M161.47 215.9h51.51v95.67h-51.51z" fill="#000000" opacity="1" data-original="#000000"></path></clipPath><g data-name="Customer Cervice"><path fill="#2d1929" d="M289 259.78c-11.47-59.82-20.55-146-20.55-146L105.6 177.15s-7 41.55-23.88 81.91 1.75 103.07 84 104.51S300.43 319.61 289 259.78z" opacity="1" data-original="#2d1929" class=""></path><g clip-path="url(#a)"><path fill="#f5b493" d="M161.47 215.9h51.51v95.67h-51.51z" opacity="1" data-original="#f5b493" class=""></path><path fill="#eba284" d="M156.15 258.6a65.3 65.3 0 0 0 62.66 0v-35.42h-62.66z" opacity="1" data-original="#eba284" class=""></path></g><path fill="#f5b493" d="M152.94 284.18s-46.72 7.32-59.69 50.56-15.14 147-15.14 147h49.73z" opacity="1" data-original="#f5b493" class=""></path><path fill="#603fd5" d="M165.7 279.17s-49.22 11-66.25 32.87-17.73 100.27-17.73 100.27l67.82 7.84z" opacity="1" data-original="#e73f46" class=""></path><path fill="#eba284" d="M234.6 284.18s46.72 7.32 59.69 50.56 15.14 147 15.14 147h-49.74z" opacity="1" data-original="#eba284" class=""></path><path fill="#603fd5" d="M214.77 279.87c18.72 1.6 56.1 7.71 72.44 34.87C292.76 324 295 335.43 299.1 358a460.14 460.14 0 0 1 6.72 54.32L238 420.15z" opacity="1" data-original="#e73f46" class=""></path><path fill="#f5b493" d="M118 138.56s1.23-59.71 43.52-74.83c.39-.07.75-.11 1.13-.17 27.88-10.72 48.21-.17 50 .17a53 53 0 0 1 18.47 11.33c24.22 22.68 25.09 63.49 25.09 63.5a46.47 46.47 0 0 1 .33 6.93c-.38 11.39-7.25 37.87-8.72 46.93-8.67 28.54-31 63.57-61.3 62.07-36.8-2.2-51.6-47.17-55.83-60.84-4.54-14.69-8.23-28.94-8.85-31.11a44.59 44.59 0 0 1-1.6-15.36c-.81-3.02-1.57-5.96-2.24-8.62z" opacity="1" data-original="#f5b493" class=""></path><g fill="#2d1929"><path d="M189.37 193.15c5-1.26 7.84-3.13 8.55-5.58 1.63-5.62-8.94-9.48-7.33-29.56a.51.51 0 0 1 .54-.46.5.5 0 0 1 .46.54c-1.59 19.81 9.12 23.48 7.29 29.76-.81 2.81-3.93 4.92-9.27 6.27a.5.5 0 0 1-.24-.97zM222.75 162.28c0 4.83-2.55 8.74-5.67 8.74s-5.66-3.92-5.66-8.75 2.55-8.75 5.67-8.75 5.66 3.93 5.66 8.76zM231.42 140a1 1 0 0 1-.65-.24c-.46-.39-11.37-9.53-24.08-2.28a1 1 0 1 1-1-1.73c14-8 26.25 2.39 26.38 2.5a1 1 0 0 1-.65 1.75zM167.48 162.27c0 4.83-2.53 8.75-5.66 8.75s-5.66-3.91-5.67-8.74 2.53-8.75 5.66-8.76 5.66 3.91 5.67 8.75zM147.48 140a1 1 0 0 1-.66-1.75c.13-.11 12.43-10.47 26.38-2.5a1 1 0 0 1-1 1.73c-12.71-7.25-23.62 1.89-24.08 2.28a1 1 0 0 1-.64.24z" fill="#2d1929" opacity="1" data-original="#2d1929" class=""></path></g><path fill="#603fd5" d="M172.22 278.52s-65.56 15.14-72.77 49 6.86 154.25 6.86 154.25h169s6.48-137.67 0-167.94-72.85-39.63-103.09-35.31z" opacity="1" data-original="#e73f46" class=""></path><path fill="#f5b493" d="m309.91 313.12-34.59 168.66h64.87L346.67 318zM161.47 281.54s12.68 22.93 27.45 22.66 24.06-25 24.06-25-33.28-18.97-51.51 2.34z" opacity="1" data-original="#f5b493" class=""></path><path fill="#603fd5" d="M161.47 265.19a8.46 8.46 0 0 0-5.48 6.22c-1.09 4.95-5.48 13.91-5.48 13.91s8.91 34 19.15 38.61 19.26-19.73 19.26-19.73-19.85-2.61-27.45-39.01z" opacity="1" data-original="#e73f46" class=""></path><path fill="#603fd5" d="M188.92 304.2s21.37-16.13 24.06-39a5.76 5.76 0 0 1 6.48 3.42c2.16 4.51 5.76 12.83 5.76 12.83s-8.83 40.13-18.15 43.07-18.15-20.32-18.15-20.32z" opacity="1" data-original="#e73f46" class=""></path><path fill="#5334be" d="m112.06 324.51-2.88 30.77s-19.89 26.37-9.18 59.14l6.35 67.36h55.16s-41.76-7.21-45.95-11.53-.93-50.1-4.9-57.31-15.13-29.19 2.52-54.05zM269.58 324.51l2.89 30.77s19.88 26.37 9.22 59.14l-6.36 67.36h-55.15s41.76-7.21 45.94-11.53.94-50.1 4.9-57.31 15.14-29.19-2.52-54.05zM150.51 285.32s2.87 40.77 15.19 43.75 23.22-21.88 23.22-21.88-16.35 19.44-23.22 15.12-15.19-36.99-15.19-36.99z" opacity="1" data-original="#cc3745" class=""></path><path fill="#5334be" d="M225.63 285.32s-2.87 40.77-15.18 43.75-23.23-21.88-23.23-21.88 16.35 19.44 23.23 15.12 15.18-36.99 15.18-36.99zM187.22 316.36v76.76h23.59l-18.38-7.56z" opacity="1" data-original="#cc3745" class=""></path><circle cx="199.28" cy="339.07" r="4.87" fill="#ffffff" opacity="1" data-original="#ffffff" class=""></circle><circle cx="199.28" cy="368.44" r="4.87" fill="#ffffff" opacity="1" data-original="#ffffff" class=""></circle><path fill="#f5b493" d="M342.71 336.9c6.33-4 4.12-7.35 13.24-22.53 6.42-10.69 20.95-31.5 19.88-36.86-1-4.81-20.52 14.47-20.52 14.47s13.78-30.66 11.22-36.51-18.91 24.92-18.91 24.92 11.86-32 6.73-33.66-17.63 28.76-17.63 28.76 3.2-28.44 0-32.6-13.79 32.94-18.27 41.79S305 272.38 297 272.7s-10.58 5-5.13 10 7.59 16.57 7.32 26.19c-.39 14.13 5.06 20.59 9.37 24.73 8.44 8.17 24.27 9.57 34.15 3.28z" opacity="1" data-original="#f5b493" class=""></path><path fill="#2d1929" d="M324.54 314.87a.5.5 0 0 1-.49-.59c2.8-14.33-8.13-27-8.24-27.15a.49.49 0 0 1 .48-.81c16.3 3.52 27.12 16.51 27.23 16.64a.5.5 0 0 1-.78.64c-.1-.13-10.09-12.12-25.27-16 2.64 3.5 10 14.57 7.56 26.85a.5.5 0 0 1-.49.42z" opacity="1" data-original="#2d1929" class=""></path><path fill="#ffffff" d="M173.42 207.17h33.65a17.83 17.83 0 0 1-33.65 0z" opacity="1" data-original="#ffffff" class=""></path><path fill="#2d1929" d="M260.69 94c-28.33-54-82-41.8-82-41.8-72.07-5.77-78.56 85.77-72.07 134.64S161.47 245 161.47 245c-21.94-27.93-33.14-63.22-28.86-100.53 23.91-13.94 40.33-35.94 46.12-62.35 13 30.12 37.79 53.17 70.64 62 4.28 38.24-6.87 75.75-36.39 102C263.08 230.37 289 148.06 260.69 94z" opacity="1" data-original="#2d1929" class=""></path><path fill="#f5b493" d="M232.73 158.42c4.58-11.32 15.83-17.44 25.15-13.68s13.16 16 8.59 27.31-15.83 17.44-25.15 13.68-13.16-16-8.59-27.31z" opacity="1" data-original="#f5b493" class=""></path><path fill="#2d1929" d="M250.13 177.65a.5.5 0 0 1-.32-.88c1-.83 3.5-3.39 3.39-5.32-.12-2.3-3.52-3.08-3.56-3.09a.5.5 0 0 1-.39-.5c.27-7.44 4.22-17.86 11.54-16.4a.5.5 0 0 1 .39.59.51.51 0 0 1-.59.39c-6.46-1.28-10 8.46-10.32 15.06 1.06.32 3.79 1.39 3.93 3.9.16 2.81-3.58 6-3.74 6.13a.52.52 0 0 1-.33.12z" opacity="1" data-original="#2d1929" class=""></path><path fill="#f5b493" d="M121 144.74c9.32-3.76 20.57 2.36 25.15 13.68s.73 23.54-8.59 27.31-20.58-2.37-25.15-13.68-.7-23.55 8.59-27.31z" opacity="1" data-original="#f5b493" class=""></path><path fill="#2d1929" d="M128.77 177.65a.52.52 0 0 1-.33-.12c-.16-.13-3.9-3.32-3.74-6.14.14-2.5 2.87-3.57 3.93-3.89-.36-6.61-3.86-16.35-10.32-15.06a.51.51 0 0 1-.59-.39.5.5 0 0 1 .39-.59c7.32-1.46 11.27 9 11.54 16.4a.5.5 0 0 1-.39.5s-3.44.8-3.56 3.09c-.11 1.93 2.41 4.49 3.39 5.32a.5.5 0 0 1-.32.88z" opacity="1" data-original="#2d1929" class=""></path><ellipse cx="257.75" cy="162.97" fill="#603fd5" rx="15.09" ry="30.66" opacity="1" data-original="#e73f46" class=""></ellipse><ellipse cx="262.53" cy="162.97" fill="#89849e" rx="16.19" ry="30.66" opacity="1" data-original="#efbd42" class=""></ellipse><ellipse cx="122.97" cy="164.49" fill="#603fd5" rx="15.09" ry="30.66" opacity="1" data-original="#e73f46" class=""></ellipse><ellipse cx="118.2" cy="164.49" fill="#89849e" rx="16.19" ry="30.66" opacity="1" data-original="#efbd42" class=""></ellipse><path fill="#89849e" d="M264.51 156.52a3 3 0 0 1-3-3v-29a62.86 62.86 0 0 0-62.79-62.79h-24.3a62.81 62.81 0 0 0-62.5 68.79l1.57 16.36a3 3 0 0 1-6 .57L106 131.13a68.82 68.82 0 0 1 68.47-75.37h24.3a68.86 68.86 0 0 1 68.79 68.79v29a3 3 0 0 1-3.05 2.97zM211.42 228.94a1.5 1.5 0 0 1 0-3c18.92-.18 32.75-5.21 41.1-14.95 10.77-12.55 8.55-28.85 8.53-29a1.5 1.5 0 1 1 3-.43c.11.72 2.45 17.76-9.19 31.37-10.45 12.15-27.55 16.01-43.44 16.01z" opacity="1" data-original="#efbd42" class=""></path><ellipse cx="206.03" cy="227.98" fill="#603fd5" rx="11.99" ry="6.76" opacity="1" data-original="#e73f46" class=""></ellipse><path fill="#40c2d6" d="M320.68 125.48h107.1v78.25h-107.1z" opacity="1" data-original="#40c2d6" class=""></path><path fill="#86ebf9" d="M362.06 125.48h74.33v78.25h-74.33z" opacity="1" data-original="#86ebf9" class=""></path><path fill="#40c2d6" d="M391.42 125.48h16.77v22.82h-16.77z" opacity="1" data-original="#40c2d6" class=""></path><path fill="#603fd5" d="M354.46 70.39 382 112.27l26.1-40.72a113.3 113.3 0 0 1-53.64-1.16z" opacity="1" data-original="#e73f46" class=""></path><path fill="#603fd5" d="M381.27 31.78a29.12 29.12 0 1 0 29.12 29.12 29.12 29.12 0 0 0-29.12-29.12zm0 39.77A11.72 11.72 0 1 1 393 59.83a11.72 11.72 0 0 1-11.73 11.72z" opacity="1" data-original="#e73f46" class=""></path><path fill="#89849e" d="M101.55 349.66h64.15v39.94h-64.15z" opacity="1" data-original="#efbd42" class=""></path><path fill="#86ebf9" d="M135.41 357.35h-9.43l-1.12-20.21h11.66z" opacity="1" data-original="#86ebf9" class=""></path></g></g></svg>